<?xml version="1.0" standalone="no"?>
<!DOCTYPE svg PUBLIC "-//W3C//DTD SVG 20010904//EN"
 "http://www.w3.org/TR/2001/REC-SVG-20010904/DTD/svg10.dtd">
<svg version="1.0" xmlns="http://www.w3.org/2000/svg"
 width="700.000000pt" height="700.000000pt" viewBox="0 0 700.000000 700.000000"
 preserveAspectRatio="xMidYMid meet">
<metadata>
Created by potrace 1.11, written by Peter Selinger 2001-2013
</metadata>
<g transform="translate(0.000000,700.000000) scale(0.100000,-0.100000)"
fill="#000000" stroke="none">
<path d="M3205 6989 c-104 -10 -174 -19 -235 -29 -30 -5 -71 -11 -90 -14 -36
-5 -107 -21 -260 -57 -293 -70 -692 -242 -975 -420 -346 -217 -655 -497 -910
-824 -238 -304 -432 -668 -559 -1047 -31 -94 -79 -267 -91 -329 -3 -13 -11
-58 -20 -99 -29 -147 -36 -200 -52 -370 -15 -165 -8 -592 12 -711 2 -13 6 -46
9 -74 9 -78 23 -156 51 -285 23 -107 88 -333 114 -395 5 -11 25 -65 46 -120
50 -132 181 -398 250 -508 30 -49 55 -90 55 -93 0 -3 4 -10 10 -17 5 -7 46
-64 91 -126 188 -267 410 -501 679 -716 92 -74 370 -265 386 -265 4 0 15 -6
23 -14 27 -23 260 -140 392 -196 281 -120 597 -208 874 -245 22 -2 56 -7 75
-10 145 -20 544 -27 730 -12 1221 99 2320 865 2856 1992 125 263 240 619 279
865 4 25 9 53 11 63 2 10 8 53 13 95 6 42 13 95 17 117 9 65 12 553 4 640 -12
117 -21 193 -26 218 -2 12 -7 42 -10 67 -9 67 -70 335 -94 412 -11 37 -21 70
-21 73 0 2 -16 49 -35 102 -222 615 -578 1125 -1074 1541 -66 56 -304 230
-351 257 -235 137 -500 275 -527 275 -4 0 -26 8 -48 19 -96 46 -391 136 -562
172 -54 11 -106 22 -117 25 -11 2 -38 6 -60 9 -22 3 -50 7 -62 9 -12 3 -48 8
-80 11 -32 4 -89 10 -128 15 -86 9 -494 9 -590 -1z"/>
</g>
</svg>
